<svg xmlns="http://www.w3.org/2000/svg" width="29" height="34" viewBox="0 0 29 34">
  <g id="Group_7" data-name="Group 7" transform="translate(0 -0.5)">
    <path id="Fill_1" data-name="Fill 1" d="M23.6,34H5.4V33A8.837,8.837,0,0,1,7.79,26.941a14.492,14.492,0,0,1-3.543-2.568,14.123,14.123,0,0,1,0-20.192,14.661,14.661,0,0,1,20.506,0,14.123,14.123,0,0,1,0,20.192,14.5,14.5,0,0,1-3.542,2.568A8.841,8.841,0,0,1,23.6,33v1ZM9.8,27.79h0A6.906,6.906,0,0,0,7.49,32.008H21.51A6.9,6.9,0,0,0,19.2,27.79a14.852,14.852,0,0,1-9.4,0Zm4.7-25.8A12.4,12.4,0,0,0,2.023,14.278,12.4,12.4,0,0,0,14.5,26.563,12.4,12.4,0,0,0,26.977,14.278,12.4,12.4,0,0,0,14.5,1.993Z" transform="translate(0 0.5)"/>
    <path id="Fill_3" data-name="Fill 3" d="M5,10a5,5,0,1,1,5-5A5.006,5.006,0,0,1,5,10ZM5,2A3,3,0,1,0,8,5,3,3,0,0,0,5,2Z" transform="translate(10 9.5)"/>
    <path id="Fill_5" data-name="Fill 5" d="M1.5,0A1.5,1.5,0,1,1,0,1.5,1.5,1.5,0,0,1,1.5,0" transform="translate(19 6.5)"/>
  </g>
</svg>
