<svg xmlns="http://www.w3.org/2000/svg" width="26.829" height="24.392" viewBox="0 0 26.829 24.392">
  <g id="Слой_151" transform="translate(-0.439 -0.244)">
    <path id="Shape" d="M6.1,24.393a1.829,1.829,0,0,1-1.829-1.831V20.6A5.487,5.487,0,0,1,0,15.244V5.488A5.494,5.494,0,0,1,5.488,0H21.342a5.494,5.494,0,0,1,5.487,5.488v9.756a5.494,5.494,0,0,1-5.487,5.487H10.914l-3.6,3.195A1.827,1.827,0,0,1,6.1,24.393ZM5.488,1.83A3.663,3.663,0,0,0,1.83,5.488v9.756A3.663,3.663,0,0,0,5.488,18.9H6.1v3.659L10.213,18.9H21.342A3.663,3.663,0,0,0,25,15.244V5.488A3.663,3.663,0,0,0,21.342,1.83Z" transform="translate(0.439 0.244)" fill="#fff"/>
    <circle id="Oval" cx="0.915" cy="0.915" r="0.915" transform="translate(12.939 9.695)" fill="#fff"/>
    <circle id="Oval-2" data-name="Oval" cx="0.915" cy="0.915" r="0.915" transform="translate(19.037 9.695)" fill="#fff"/>
    <circle id="Oval-3" data-name="Oval" cx="0.915" cy="0.915" r="0.915" transform="translate(6.915 9.695)" fill="#fff"/>
  </g>
</svg>
