<svg xmlns="http://www.w3.org/2000/svg" width="24.324" height="29.73" viewBox="0 0 24.324 29.73">
  <g id="Location" transform="translate(-0.486 -0.27)">
    <path id="Shape" d="M12.163,29.73c-.936,0-3.128,0-10.481-11.784l-.095-.169A13.562,13.562,0,0,1,0,12.163,12.473,12.473,0,0,1,12.163,0,12.472,12.472,0,0,1,24.324,12.163a13.568,13.568,0,0,1-1.615,5.614l-.094.162c-.066.119-1.723,2.8-3.7,5.528C15.194,28.7,13.621,29.73,12.163,29.73Zm0-27.7A10.147,10.147,0,0,0,2.027,12.163a11.457,11.457,0,0,0,1.352,4.729C3.446,17,10.158,27.7,12.163,27.7S20.878,17,20.946,16.892h-.02A11.464,11.464,0,0,0,22.3,12.163,10.147,10.147,0,0,0,12.163,2.027Z" transform="translate(0.486 0.27)" fill="#5c5c5c"/>
    <path id="Shape-2" data-name="Shape" d="M5.405,10.811a5.405,5.405,0,1,1,5.405-5.405A5.412,5.412,0,0,1,5.405,10.811Zm0-8.784A3.379,3.379,0,1,0,8.784,5.405,3.382,3.382,0,0,0,5.405,2.027Z" transform="translate(7.243 6.351)" fill="#5c5c5c"/>
  </g>
</svg>
