<svg xmlns="http://www.w3.org/2000/svg" xmlns:xlink="http://www.w3.org/1999/xlink" viewBox="0 0 199.78 19.83"><defs><style>.cls-1{fill:#fff;}.cls-1,.cls-2{fill-rule:evenodd;}.cls-2{fill:#fefefe;}.cls-3{mask:url(#mask);}</style><mask id="mask" x="26.2" y="0" width="25.54" height="19.83" maskUnits="userSpaceOnUse"><g id="mask-4"><polygon id="path-3" class="cls-1" points="26.2 0 51.74 0 51.74 19.83 26.2 19.83 26.2 0"/></g></mask></defs><g id="Layer_2" data-name="Layer 2"><g id="Layer_1-2" data-name="Layer 1"><g id="Case-Project-Detail"><g id="Group-16"><polygon id="Fill-1" class="cls-2" points="0 0.83 0 19.83 5.71 19.83 5.71 13.55 19.07 13.55 19.07 9.03 5.71 9.03 5.71 5.53 20 5.53 20 0.83 0 0.83"/><g id="Group-15"><g id="Group-4"><g class="cls-3"><path id="Fill-2" class="cls-2" d="M34.56.09l4-.09,4.53,0c3.29,0,5.54.59,6.73,1.72s1.9,3.49,1.9,6.87v.93a24.89,24.89,0,0,1-.53,6.12,4.55,4.55,0,0,1-2.44,3.08,15.22,15.22,0,0,1-5.82,1l-6.06.12c-.44,0-1.09,0-1.92-.06s-1.54-.09-1.93-.09q-6.75,0-6.76-6.46c0-.41,0-1,0-1.79s0-1.38,0-1.79q0-5.94,1.45-7.75c.9-1.12,3.2-1.73,6.91-1.8ZM31.93,10.43a7.44,7.44,0,0,0,.53,3.48Q33.17,15,35.52,15l1.54,0,1.52,0,2.92,0a8.75,8.75,0,0,0,3.22-.4c.82-.43,1.26-1.37,1.29-2.81V9.18c0-1.87-.21-3.07-.74-3.62s-1.68-.81-3.45-.81H36.18A8.4,8.4,0,0,0,33.61,5,2.32,2.32,0,0,0,32.1,6.68a11.8,11.8,0,0,0-.17,2.43Z"/></g></g><polygon id="Fill-5" class="cls-2" points="64.49 14.76 77.4 14.76 77.4 19.63 58.85 19.63 58.85 0.2 64.49 0.2 64.49 14.76"/><polygon id="Fill-7" class="cls-2" points="90.63 7.51 93.54 7.51 101.23 0.2 109.07 0.2 98.4 9.81 110.24 19.62 101.91 19.62 93.54 12.26 90.63 12.26 90.63 19.62 84.98 19.62 84.98 0.2 90.63 0.2 90.63 7.51"/><path id="Fill-9" class="cls-2" d="M122.88,16.1,121,19.62h-6.31L125.12.2h7.65L143,19.62h-6.28l-1.75-3.52Zm6-11.7-4,7.68h8Z"/><path id="Fill-11" class="cls-2" d="M148.23.2h17.36c2.21,0,3.8.44,4.75,1.31s1.48,2.55,1.48,4.84a7.7,7.7,0,0,1-.7,3.84,3.67,3.67,0,0,1-1.48,1.28c-.28.14-.89.37-1.84.7a5.31,5.31,0,0,1,2.76,1,3.38,3.38,0,0,1,1,2.77v3.72h-5.76V17.76a5.52,5.52,0,0,0-.31-2.39c-.3-.48-1-.73-2.15-.73h-9.5v5h-5.65Zm15,9.7a4,4,0,0,0,2.34-.46q.54-.46.54-2.22c0-1.17-.31-1.85-.92-2A6.45,6.45,0,0,0,163.35,5h-9.47v5Z"/><polygon id="Fill-13" class="cls-2" points="177.48 0.2 177.48 5.07 185.84 5.07 185.84 19.63 191.48 19.63 191.48 5.07 199.78 5.07 199.78 0.2 177.48 0.2"/></g></g></g></g></g></svg>