<svg xmlns="http://www.w3.org/2000/svg" width="19.986" height="29.334" viewBox="0 0 19.986 29.334">
  <g id="Mouse_Copy" data-name="Mouse Copy" transform="translate(-0.487 -0.267)">
    <path id="Shape" class="swipeIco" d="M1,0C.333,0,0,.56,0,1.253V5.42c0,.667.307,1.253,1,1.253s1-.56,1-1.247V1.26C2,.56,1.667,0,1,0Z" transform="translate(9.813 5.933)" fill="#aeaeae"/>
    <path id="Shape-2" data-name="Shape" d="M11.14,29.334H8.84A8.861,8.861,0,0,1,0,20.48V8.847A8.86,8.86,0,0,1,8.847,0h2.3a8.859,8.859,0,0,1,8.84,8.847v11.64a8.861,8.861,0,0,1-8.846,8.847ZM8.84,2A6.856,6.856,0,0,0,2,8.847v11.64a6.855,6.855,0,0,0,6.847,6.846h2.3a6.855,6.855,0,0,0,6.847-6.846l-.007-11.64A6.855,6.855,0,0,0,11.14,2Z" transform="translate(0.487 0.267)" fill="#929292"/>
  </g>
</svg>
