<svg id="Group_3" data-name="Group 3" xmlns="http://www.w3.org/2000/svg" xmlns:xlink="http://www.w3.org/1999/xlink" width="25" height="25" viewBox="0 0 25 25">
  <defs>
    <clipPath id="clip-path">
      <path id="Clip_2" data-name="Clip 2" d="M0,0H25V25H0Z" fill="none"/>
    </clipPath>
  </defs>
  <path id="Clip_2-2" data-name="Clip 2" d="M0,0H25V25H0Z" fill="none"/>
  <g id="Group_3-2" data-name="Group 3" clip-path="url(#clip-path)">
    <path id="Fill_1" data-name="Fill 1" d="M17.968,25a6.976,6.976,0,0,1-2.389-.427,25.476,25.476,0,0,1-9.253-5.9,25.491,25.491,0,0,1-5.9-9.253,6.915,6.915,0,0,1-.353-3.4A7.088,7.088,0,0,1,3.719.833,6.956,6.956,0,0,1,7.052,0a.786.786,0,0,1,.764.617L9.041,6.34a.776.776,0,0,1-.211.716l-2.1,2.1a20.663,20.663,0,0,0,9.114,9.113l2.1-2.1a.783.783,0,0,1,.715-.211l5.723,1.227a.786.786,0,0,1,.617.764,6.966,6.966,0,0,1-.833,3.333,7.095,7.095,0,0,1-5.191,3.644A6.959,6.959,0,0,1,17.968,25ZM6.428,1.6A5.474,5.474,0,0,0,1.9,8.888,23.7,23.7,0,0,0,16.111,23.1a5.48,5.48,0,0,0,1.873.333A5.5,5.5,0,0,0,23.4,18.572l-4.656-1L16.56,19.763a.78.78,0,0,1-.885.155A22.12,22.12,0,0,1,5.082,9.325a.781.781,0,0,1,.155-.885L7.425,6.251Z" fill="#fff"/>
  </g>
</svg>
